/* XPM */
static char * back_xpm[] = {
"128 128 75 1",
" 	c None",
".	c #353535",
"+	c #3A3A3A",
"@	c #3C3C3C",
"#	c #3B3B3B",
"$	c #3F3F3F",
"%	c #292929",
"&	c #2C2C2C",
"*	c #2D2D2D",
"=	c #2A2A2A",
"-	c #2B2B2B",
";	c #2F2F2F",
">	c #303030",
",	c #272727",
"'	c #282828",
")	c #2E2E2E",
"!	c #323232",
"~	c #242424",
"{	c #222222",
"]	c #252525",
"^	c #313131",
"/	c #363636",
"(	c #333333",
"_	c #383838",
":	c #393939",
"<	c #0D0D0D",
"[	c #232323",
"}	c #1D1D1D",
"|	c #1F1F1F",
"1	c #202020",
"2	c #1C1C1C",
"3	c #262626",
"4	c #343434",
"5	c #3D3D3D",
"6	c #373737",
"7	c #1A1A1A",
"8	c #1E1E1E",
"9	c #191919",
"0	c #3E3E3E",
"a	c #0F0F0F",
"b	c #484848",
"c	c #141414",
"d	c #414141",
"e	c #424242",
"f	c #404040",
"g	c #171717",
"h	c #454545",
"i	c #212121",
"j	c #444444",
"k	c #494949",
"l	c #1B1B1B",
"m	c #4A4A4A",
"n	c #464646",
"o	c #101010",
"p	c #434343",
"q	c #0B0B0B",
"r	c #080808",
"s	c #161616",
"t	c #090909",
"u	c #181818",
"v	c #4B4B4B",
"w	c #0E0E0E",
"x	c #151515",
"y	c #111111",
"z	c #474747",
"A	c #121212",
"B	c #070707",
"C	c #0A0A0A",
"D	c #131313",
"E	c #0C0C0C",
"F	c #050505",
"G	c #000000",
"H	c #030303",
"I	c #060606",
"J	c #020202",
".+@+#$$+%&*=-;>*,,'%-*;>*);)*)>!%,~{{]'=*>>-%=%,*>!^);/@(_/;:,'<[}|%&'')=;>=12{%,*;-,'',]3'&;;&%13&&']3'%,'%''>:;))>^>*--4556465",
".+#:+55_46_..::/^^>>>>^^4.//4.6_!!!!((44^..!>((>*>!^);4__@@/@]-78,))&)^^.;=->!;&*(4;&&&=);^466.!._#:!**)!>^^;*!+4(!(44!>).@@_./+",
"/++::#+6_##66+:///..44((!4..4(./>!/:+:6..__/6+#_)^(!>;!._:@::9,~|^#!&^/.:(;^_#6^(_:4^!^;>>!46_/4@00+(;)>:_::.>(::6.4//.4!/+#:6..",
":++::::_/__4(.4^!!(44.44;>!!>>>!-)^.//4(.66.6#+6>(..!^!(66#+4a[*&.:4);4646+:.!(/4__.4//(>;>!4/.466/(;);^__+#6!(_+_.4.///./_+#:.!",
"#::::__:6:_4(.4^>^!(44((^(..(!!(>^!4./6_./.(.:_(4/66/444+:55.a34$4>/.*;:!/+_(^(/^4.4.__4.(!46::___/4((.6./:@:4.+@://6__6../:#+/(",
"+6/__/6+/_64(.4^4./6/4(^!4/6.(!(.4((4/_+//4!.+_!66666666:_#_!a3!b^%/#>):6(^4_#:/^(((.:_4/4!(/_++@#:6///6(4_@+6:$5#::+#+:^(.:@#:/",
"6!!./4.+.66((..!./_::6/4^(//4!>>(!!^!(./((^^/@+4_6../6_____(^c'&5*'!:4^46/../6::.6/4/+6!4!;;!/__#+_6//..!(/+:6+d#+:+##:6&>.:#@##",
"4;)(4^(:_##_6++6>!._+#+:(/_:/4(!!!((((((>;);.@#._/((46_:55@./};*&%%*4/!*!@e+&'!$##:6_+6^/(>>(6:+:_66::_6^^46/4_$666_:_.(%).:#@50",
"/5@>-^66>(/////_=&!:+/4//(>;>^>;!!!!!(((;>!4/6__:+:/4/@df6(5+1g&)&;..;>..:0f:^(:4>+^$!6;(.4(/#+/!6#@:...^4//(4:5#/4:@_4(/+55#+@$",
"!_:4;>(4>!444._#-&>6_4(/;;);>!(4!!^^^^^^*;^4.///.6_/4(._#+0bd{9)+66_4*-;./+@_!(:_/>!!66:.6/.6#+/^4_++_66((.6:+:_:6_+_!^(_:++::+#",
";^/:/>;(^!!^^4:5)&)(4!!.///4^;;>!^^>>;)))>(/66//4/_6.(!!!.@h0{24/44.!))^.((6644__#*:&@(:6::6_@+.4./:++6..44:0$+.:+@56;;.:6..6_::",
"^)(#:>;.((^;;!_5^*&;!^^4_++6(>>^!!^>;)**>!._::_/6_::_6//>^(#_]3f^!((!^(/.>)!///6/:45.+>;_+:/6+_(_/._++/!6/6+00#_+:#5:(!/:.!!6###",
".^(+:^^_4(^;)^.:4*=*>>^();^(4/_+(!!^>;)*;^4/66/.:_66_++#.44@0)&$/_:/4(44.)&!666_/(+40.6>_:64._6!/44/+#:._+##::@$_44_+64464^(:0$$",
"6446/44/>^^^>^46/;=*^>>!;*&*>(4444((!^^^;;^!((((_/446:++(._de){&%;(!!..44;;4::_:_>_=5(f#+:/^!664^!(/+@@#_#5#66@d.;)4_/!^.44/+0fd",
"46/44/4>%&>(44./6>-)!^>^+(&=;!>*.....444!!^^!(./6.4/_:64;/@d537~1'>^(_:/4^(:#:_+:.4^/6##@#.>^6+:(.666_:+_+##++##.!!66(^(.6_:+#5$",
">6_!(6(%[';4//66_>&;(!>>#!%=!:_./////6666/4(4/:+666+@+4>(@fd:[8;&/@++@+44(/@5::#_@4f45;>0@.;^_5@:#@:.!(.:__#$$+.6_#@_!!6._@#:6:@",
"4./__.>-@;>/^>4!#4))46646!;^(4+f+:__::/46:+:66_:#_/6++645/5d;[-(;./((6/^!!(._+:_+:_6___:;^(/6__6/:_._@_;!!46+##+:++:6444;(#$@..+",
"...//(;-/&;.>)!>4!>;^(.//^)>^^/@#:_:+:_/(._::+@00#_/66_6@_$e!]-.;4/44/4;444/:+:_///.44././_:++:__+:./+:4:/!>^4_::++:6.44(^4__/6#",
"+_6//.^;!&!6^;(^;>^>;>4_/^);;)>.:6/6__6.^46_:+5$f$#644_#_65d4[,/>.6//64>//.6:+_/4/6.!^(/6_:++:_6+@+/46++@+/(^!4.+::_6..4/)=;.6_+",
"#_/444!>^)6#4(/!);>^^(./6!>>;&*^/4((./.4(.6666:#ff0+.(6#!4:541i6>46:++6.6/./__/4._+6(!.:(4.66/.4:@@://:#_+55+/(^#:6/6/.4/-~-.::_",
"_.!^!!^>^>_#4.6;^)*>/_/(6(^(^**>/4!(.666^(....6:5$$@6./_>.6#/88#)>4_+:__6../66.(/_:_..6+;^(.66//6+55:/6:/:@5+6..@:/.66/.(%]&6+_/",
"#:66___6!>.6!..%!;*^_+.;/!!4(>;^6.446:++)>(4.6:@#55@:6//!:_#:18j**;.6//:6/./66.(6///6:++^(._++++66+5#6.6__6(>!:$@_446_6.>-=^6_66",
"@#+#505@6!(4!_/3;;>(/.!)!>^44^>!.(^!._++^(.//6+@5#_6__6/!@6:+|8k4>^.64.+_66_++_6+6.6@f$5./:+###+#/.:+/.6::/!)!+e5_((6:_.>)>4.._5",
"/./_+#+_5..44@_3-;(4!>;;;*;44^>(^;*)^4/66:+:66_:$+4(._:_^#4/_2lm@6.::.6@:::+@5#:0:/+enhd6_+##+:_$/!/_/._/+#:..+f5_((6:_/^^4.(^_e",
"@_/6/(.:.44/66.!(.__6../=-)4_/;%)>.:/>>4+:6../_:._+://+5/>;/#o|4>4:+:6_:.6:+##+:6.._0pjp5(;4+:_+#..+@:_#6@$5_/+$5#.;^6#:_6/6:++:",
":4!/_/((///6:_/4.6::6../4^*--&**;;(_6!^4_6.4./6:444(!!(._(>._q7)%)(///_:_:+#@#++@+_:#5@++.46646@#6/#@:6:.6_6/4((_+:..:#::64!>^(.",
"+!>/+6^&/.4.66.(.6_6.4446.^&%=)!)&)4/(^^44444/6_+_....4(:.!4.rs%=*^4..6_##@@@#+:5#:_:_/466:_4>.@+66#5:66:_//6.^*!_@+6:+:#+6(;^/#",
"+.4_+/!^(!^^((!>!(.4(!(.!/+#644/4>>/+:/.^!(4.//6@_./_:6..4((4tu-!4/66///@@##+:_6____:__6_:+_(^4_6/6+5@:_#+6.(^;))6@:.6:+/:+6(4@p",
"/.6:_/+d(^>>!(!^^!44446:.#de0://@665d$@@>^(.//..4^;>(.4!>(44.<|!///6__66##+_6////6_:::__::6.4.4(4./_@0@+6_6^-%&^;/_4>(_#!/:_..+$",
";^/:66fv/4!!4..44.///6:@$$0#64((+//+@:_+>^4/6/4(^;);^(4(;4/./o[.!^^(6::_#+_6/../6:#+_/..6:644/.^.66/:00#_++.*-^6!/.>)!6:_+5#:6:@",
">^466.:f6.((4//.///.((/_f@_.(!>;4!(/4>^4^(/__/(^.//.44/_^_:..wi!(^>!/__6#+_6//6_._++/(!!!:#/!4.(:#_4/@5::#5#_/6:./4>>46/55#++#5$",
"/((6/^))/(^^!44(//4!;);^_/4./.>&//6:.>^6!46::/(^/:+6(!46.@@/(q}*_.((/6/4@+:_6_:+^4__.!^!*:$_;>.600+(4+#///_#5@6(/6.!(66(:/!!.+0f",
"...4(!>;4>;^!!4:6/_^-4+;*!66(^.++#+6!;>(_:+:6()&-;4//.4.6(_^#8ul0;,)_+6.++:__6//^::^>6/*@:6_@5#__:::__+#+#+_./+0.;-).:64*>(.6:@$",
"6666/.4(6(^((^(6$+#6)!6;!(.////6__/!))!.666/.4!!^((!^^!4>>_^_ll]6>)(66_@::___6666#_;;6+._66_+##++#####50/6/4^!/::4>^.__/;!.66_+#",
"66___6//+/4.4^!.d6_+!>4^/.4._:/4.4^)&)!/.4444./6.4^*=-;!-*:!/u|^^!._/4:f6666____+#4=-.@@4/6___+@////6:+#::_/4._#6.^;;>!4>4_::___",
"4./66///+/4/.!!/@;!:(;(.....//4((!^;;>!(!(4./6664!>&%=*>))_!/9{_>4__4(6@../6_::+66>'%(#@._#+6/_#(!!(/_::##:66_+@_6.^&&>4>4:##:::",
"../666//644//(46:*^+4>4/>46/!>!.((4..(>)>!/::64!!!!^;;^(_!:(:7{6!./.(4..44./6_:+..!);.+#+50@_.6:6.4/:@@#+_.4./_:50@_!^.:;(_@@###",
"__:::__6/((//((/#!/#4(64*(6/>)^/!(.__/^*;!6##6(;!466///65/#.:g8.4.(^!//(44./6_::////6:##0$0@:///_.(4:##:#_.4/_::+@#_4(._>4_#@@50",
"_:::_6/./((/.^>(.(__(_@4;!4.(!4/^^!/__4>;!/:+_4!!4//.4.6#/$_/o9.!.4>^6+:...//66____:+++#0@+::_/4_4^!6:_.@:.46:::./6/.44446+###@5",
"666/.4!^_.4/4;*;-)4(>#f.!^^(/_/4>;;!/_/4>!4/__6/^!!^;;^(//e+(tx/)./^>_$f...///66_66_:__+@:/6:+645_./#5#66(;;^44(./6:::6/_+##::#@",
"////6_:+.4^&'=>/44./66.(*^._+##@*'';./6:)^4.../_4..(^^46)__:fog-;;;>!._+@.!./44:#+:_:+#@66(>4:+/::::::::!6#_!;(:.../6_/.@@@###++",
"/////66__6.>**>4((((44(!!(./6:@54*->/666^^>>>>;)/.4(((./4:(!+wu)(((4.//6_4(/6._0/_@05+/(::/(/#@_666_____/:@+.!(.6_:+##:6@@##++++",
"////....!(4(^^!4(!^>>^!(6/44._#5@(*^6_6/.(^>^^>)6.(4.//.6+((5yu-(4.///..../64!/56:#@#_4^##:/_55+.///6___66_6.^)&!46:+_/4##+++:::",
"66//.4(!'-;!44..((^;);!._/../___04*^_:6/!44(^^(//4(4/6/.4:/+zgg~((((4../.6:/^)^65#_/./_++@#__@5+.//6__:::_/6/(&,-;._:_/.++::____",
"6666.4!^'=)!//.4.4(>);4_/.4/__.!+^&^6:66&!64*->64((./6/.(64_hsg~+:/((4/64:#6!>46@+6/6:@$:@@_6+#:6___::++@:6_:.),-^6#@###____66//",
"/6__6.(^!!!4//4!./.!;>.:4!!._6(;4;*(66/_;/#_>&;4>!..44./.6;):au&f0+6.../!6+_/:@@.6:@55@#6#@_6::_::::::::/4((4^&,->6::_:#666///..",
"/6_:_/4(_.!!4.4!(./(;;4:4^)>4/(;^>!664._!46_/4!^-^//!>(64_>)_wl!/6_:_6.4>.6.6@5+/6:###+:6@0+6_:_++::_66/(!^^^>)&*!//(^(.////..44",
"/6:+:_.4.!))^4.4^./4;;(_.>&&^4(>^!/+_((6&=-^6_!-'>_6>*!_>_6_$A}(,-^6::/4>44^4:_!5+/((/+@65$#_::_++:_/.44____6666.:@+4^(///...444",
"@_/64);.&*=,&(!=!4.4^>>^^)*;;*)^0/>!..6+=|,/.>!!)>>*;.__!$0#jli>&-)!((/@(;&*!6:+////6_:+66_+55@+/6__64>)./_::_/4_#@_!);!:::___66",
"+6/_/(.#:/;=;//>>(..!>;;(>>!!>>(#4>!.4.6*{%/4>^>)(..6_.;!@@5js8(&&>././#4>*)!/_:..../6::+_66+@5@_:::_/4!(46:++:_/:#_!;^466//....",
".446/.:0p@^&>__(^466.!>>/((//((/6!^(.((.!,&/!;^)!.//:@_^!6:fja9_**^//(4_.!>>!./6..4./6_:@:/.6#50++:::__6./_++:__46:6(^(////..444",
"^!!((46#f_;&>/.!/6_64((4/(4664(//!(/64(.6&;.>)^*6.^;4@0+!(/djts#!>^4!;>4/4!!!(..4444./_:#://_+@@::___::+###+:6.4(.//44.6_666///.",
"(.4!^!.66!);(4(^6/.!>>!.4!(//(!4/4.:_44/+>^4);(;_/!)!:@:!^4djBx5+/((;&)4//.(!(4...../6_::_6_+#:__66/6_::##+:_/.4!(....6_66///...",
"6+:4^(.4>;!/64(.((^)&&)^!>^..^>!/./:_44_@!^!*^/^.::/4.()!!(0pCg#5_/4^*>..//.(!4.////6_:+_6_:##_//////666///66___!!(4/6__44((!!!!",
"_#+(>(4!;^/#6^(+;^!!;***>)>44>)>.4/_.!(:#!^^&(+./@0_!>>;!4!+ea7_4!(.();(4/6/(!4/6666_:+#+_66::_6./6__6.4444./6_:(!(4/6_6(((!!!^^",
".:_^*^!>>!:@.)!@)!/_.^)&>)>..>)>4(4/(>!_#!^>&4@6+05(-).+!.!_eA2/'%)((*&)(/_/4!46____:+#@@:/4/_::/6:+:6.(/..444..(!!4/__6...44(((",
"46:/&~,>^!4/6___^>^(..(^!(>)>4()6_/!.+_>.4!!!^)-#_.4.//.0_:d!aD@6(>>!.4(_6.44./6::6.4/+5#+:__+#@###@@:4>@/^>46.!@4#;@!+._44:_!>4",
"(.+#.*)4);>!!(!!)*&*;;*&-);-=;!!(.(;;(^&^;;>(.//4!>>!(4((^.$!oo44!>>(4!^4444./66666.(4/::_6...//!!(.664^4(!^!4/_::/:6:.4^;!:#6/:",
"66:#6)=-./6__6/./4!!(44(->^-,-^4.:+/./6/5:(>>>>;^;**);)*_66#)aw&!>;>!!^;!(4/6___4.//4(4/@#:6/...!^^(./4!)!4(>^/#/#^f^5;^))(+5+:+",
"+66+:!*&^!((!>)&^;**;^!!/64&=*^^*^(!>>(.4^*&;(/_.(>))&='_6(>~EE3(^;);>^!./_:++:_^4/66/6_##+:_666+6.44(^;>(.4!!/#6:!+!_>>!4_@5:.(",
"+..:@+:+(4./.!;*(^;>46__#6>-)(()!4//(>!/+.;-=---.(^>>;&=->*'8CFx4!;&-)!.:+###:6/)!/:::+#66______@+6.4!;&>>^(/_+#5/_;_^64._@@#_()",
"6!>!(^>!!4/6.!)&!^>!.___.;'3)/4&+6664;)^#6^&%3{1*&&)^!>;&__>~wGG!^)=%->4___6/.(!*>4/6_:+6_:+#++++:___6.!%=&>4_++04+=+;@64:#+:_4)",
"3]3%%]~,],%=%3{|3]]3'',])&',&(!&)'3=%][]]],-)>)*[[]'&))&)@@!%7EC-&*-%%-)^^>;))))-*>^>^!44.///.4(^^!4/.!;[,&*&&;(4>;&^^4(.+#6./(*",
"aAl]%%&^)>(4(>&%>>;>^;&%*;)=-;;-4*-!/4!4:6.!&~7c||1~,',]8&&~,'3-~'&&=,,'-=','%=-=&*&-=-*=---='3]]]3%=%]i{%;-[8[%%&{;]!%*_@@/(4>=",
"AAou333>,33%&*%333'*!4^*)>>*=&4+-)^44!;*>..^;^!^[3&;=]';**;>^^^^-&**&&*))>!44(^>:/4((4(^6(>^4.(^-)^>&','@6!>>)%~;(/.(4:$>(@:ep&*",
"}11'.(^+;&=-);)&&*;(//(^^!!>>(_@;;));^(.^./!>!(^!>^4())^^!(../////.4(4./(4.//.4(6.4(44!>4!>>^!^>>>;*-=&*_.!^!^&')!//(^(6.(_.5:9D",
"8]';+/!:/(>;>!((>(/6/4((/4!!4///);;>!4./^./!>!(^_!>(.(!(4./6_:__:6.(!(4./////...44(4.4^)^!!>));^.^&=-)^((!!((!;**^..^**)>=;^0_yF",
"u~=>6!&!6/4!!(((^4_6(>>!6(;;(4^*-;4:+6(>!/6(^(4!4>;!4(.:(4./6__664;**)>>((!(4./6(!(./4^)^(4!)*;!/^--;(//>!(4(^;))>^>*--&!%*(p#yH",
"9%^(_4;4(4..4!^>!._/!;>!4;-*!.!)>(6++6!;(6_4!4.(44.6(^.5(4./6666:.>);>^^>>^!46:+!!(./.!;4/64>;^44^);(66/^(.4>**)>;)-=-)>#^4/d/wI",
"7*.464!_;!..(^>>./66.444>&%&4:+_#:/4(4/64_:.(./4./_6>=*../6::++:_4;)^!!>>^!.6:+#4((.//4^__6.(!(4^^^(.66/(6_.)-*>!>*--)^4.)4(_*D9",
"u&4>!^^:>(..(!(./.4.6_6/^)-*!_##@+/((.:#4_:.(./4/../^==)/6_:+#++/^);!4!;>^4/666//.4./6/4#_/..4(!^!(444/_.:#/)->6.(>;;^(4&=()-[g*",
"9*4);>(@(./4!(6#4!^(6:_..^)*;(/_/6__::::4:+/4//.#6/:+.^^./6_::::_4^(6:/!;^(44(^;_/44/66/@_44./(>^(.(^!/#6#@6;*4@/.((((!^!!:*isy>",
"7|-..;^:/(>;>4:@4./4!(6#;;;>^!(4+_/..//._.(4//!);>^(.6_:.6_:__:#../666//46_.4/.^(4/6_66/6:+_.4/:^4//44/:@6(.:_^=//.44(!!)+!!_7C'",
"x~;>^.6.((!!!4/6!4//4(4/>>>>^!(4_/!>>>^^4./.444.^^!(./666_:_6/6_6///////46_.4/.!+:6/./_:6__/(!46.44/6_/4@_//__4>..4(!!^^*/;^_|o%",
"y,(**:#!!!(44((!^(/6.(!!(!!^^!((6.^)**;>!._/!^.:((4444.._:+_/4./:_/.44./46_..6/!@_4>;!.___64!^(._/46##.>:_6..44444((!^^>*!-;_3g,",
"c3^;>6:4444((!^^(4..4!^>.4((!((4_/(>;>(/4..4^^(/...44(((6_:_/..6#:/4((./46_..66(:/(>>!._:_6.(((46_:+#_4^/6/(;)>(444((!!!);%*/=li",
"l{*..!4_6.(!^^!(/.(^^!!!/..4444.//.(^!/+_.!^!!>*...44(((./__6/_:#:/4((./46_./__4444./6_:+:66//.4(:05_((46:_4)&)!//...444^;-&!&|7",
"|{*_6;>:_/4!^!4._.!>!(44//...//6(./4^^.::.!!4()%((4444...6____+#:_/.44./(6_//:_.&)>(...4666:+:/(^:$5.>!6:##6(>^(////////4!;;>)~g",
"8'!.(!!(///...../4!(.6/4//.//6_:(6:6!>!.//6664>*^^!(./66_:++:_:#6///////(6_//::/*)>!(((!((.:@+/^(6#:4^(66_:_/.........../4.(>!-7",
"l)_^)//*(.6::6.((!(/::/(.../6_+#6#0#.>>!^6@@_4!(;>^(.6_:#@5#:__+../666//(6_/6+:/6__:::::;>4:@#.;.//.444.!(4/66/.444444446/:6!/^8",
"g*.!//>^&!//(^(/)>(...6_((./////&)>>;);>//6/..6_/(^!6++::@#/4_####+64(./:++_/4..(>!#f@4>/4(._+_/!/++.!!((4//.4/_4)=)_@_!^>>.::(*",
"c&6._6(.>._6(^(.>!4444/_66/.4(!!>!44(!(4//.4!!((4!^!.6_:/:://#5@6__6..6:__:6.!^^6!!_5+.!4(!4_+:6///66.(^4./.!^^(!>*;!4(>_4!._6)3",
"o-:6:_.:46:_4^!4(44(!(._66.(!^^^!4//.../6/.(!^^^^!(((46:/:+__@#_!46_66_+::_6/(^>#.!/:644;))^466/+/((664>.//(>)*)(((^>;>^+4>(_6*~",
"w-+__.4:(.6/(^!4//4!^^.6((!^!(4.^(..4(4._6.4...4^4//446++@@+++6^^(6__6__@+_666/.#/46_.(4==-)^(44+64(..4!///4>)))6/.(!!(4/>&^:#(=",
"a&+6.(^/>^!!^!(4//.!^^46^^!!(4..^(..444./4!(.66/!/:_/._#+@@+#@6>(.__6../#_4(.6__+//::4!!-&);^!4./__/(^(/./6.!^^!_4>^46/4()&^+56;",
"A&644(^/>>>>^!(4...(!!4/!(4..4((4/_:_6_:!>);4//4.6::___:/___@$#4.6_6.(44/(>^4/4^:/6::4!(^(44((.646+_(>!/./6/44.//^&*(6/4.!>4:+/!",
"x-4^.6.:(!>>^!((!4..((4/;^46_6.4/_##+:+#4>*;(/4!///_::_//6/6#f5//66.((4/(!!/_.*3+6.6.!4_4/6/(^(4./_6/4!!.6_6.44/4!>;>(/_...6__6.",
"s-!>/+:@6.!^!!!!^(..444.=*(_##+_/_++:::+_4>^.6.^/44/:+/(++6/+0#(./.4((/_!(6@06=|@644!^.@4/64>*)>6.4/:_()/6_/4!(44664>>/5(.6___:+",
"u34____/:/4(((!^4/4^.#:!+:_6//..@:/./_:::_.(!(4/+:_//6_:_:#@#:6._6/44./606^!/(,}*#f/;!(;6.(!(.6:.(^!4//./666//_+64!4+5+6.-($:.#$",
"93!/./6.+_.444(^!.4>!/.>4(!(4/:#@+66_:_6.4!^^(./:_____::::+++:6/..../6__:6444!&,,4+!&;^)...44.6::6(;*>_0/_:_66:#6(^(_+_..^._.+@(",
"73^((4...4!(..4(^./!^(4!^>;>!.:#+_6_::6.4(!!(.6_/6_:++++++:_____!(4/6__:/66/4!!!3^/>&;^;(.6/4(/__+_!&*6$6_+:__:#64!(/_.(.4/!^5@,",
"2'!(!4//)))^4//.^._/(4/_44((((((((46::6466///6:+4/_+##+:#:6//6:+!(.6__66:_/.4.//-(6(;!4(>46/(^(/._#:4!46.6::_6_+_/4.//.!.!4(^6/,",
"}'(44/__^^^(/6/4;!./.46@//66/4^;*)>._:6.::_66//6(.6:++::+:/..6:#4.6__6.45_4(/_/4!/_.!(44;!.4!>^(66666/.((.6_6//6:_6666.44&!+(*;)",
"l,(//_::__6__64^;;^44(.:4/6__/4!-&;(_:_////.4(!!4./66_66:_/..6:#/666//.4@6!!/6.!4./.!!(4(!!!!^^^5_!>!.6_^466/../:__66///.-!54%-;",
"g~^//_:_///6_6(>.>;4/(!.//..../6>>^4_:_/(4444((!..444../66/./6:+//.../66..4(((4444444(.6:4>>(.4^_/(^>(6+^4_:6////666/.//6>.:!)&]",
"D{>./__6*);(//4!@4^/_4^(#_4^>!/_.44/_:6/!(4./////.(!!(4.////66_:.444.6:#)!/.^>(_4(4/66:#5/>>._/!&!__4^(6!.:+:6664.//44./:6_4;.;7",
"D,^4+_!.&>./4((.>/:/6+_(6>*!.((/(4.4^!.:>.:6!>(_#:.(^!4.>!/:##:_#:66__6/+::6/4!^#_../6.(//.4.6.!@:.4..!;:/(._+:6._+:.((.;!.)'^*s",
"A,!4:/^/;(/6/./6;4/446.>_!^._/.6.//4!^466.4((4//_6/.4(((((4./6_:/.4/:##+/6_::_6/_.((./.4!(4./64^6.(4..!;_/..6__6/_+_.((.!6@.&&8J",
"o3!(/(>64.66//_+>4/44.(;64.:#_/64.4(>>^(@.;;4_64./66/.(!/.!^^46:4((.:###/_+##+_6(^>^(./.>>!.6/4^!^!4..(^/6_6../6/_:_/444)^_/>>[r",
"o3>>!>;6/////6_:!./6//(^(4/::64(>>>>;>>^:(;>46.!..///.446/4!!(.6.44/_:_6:+#@+_4!;);>!4//(>>46/./;>!.//.4(/:_4!4/6___/.44))!!^6^l",
"o~**>;)//.44./66!!4664!^)!./.4^)));^(4..;!4.(!^^6.4((4/_.////.444(4/__6./6_:_.(^);;>^(/6:!>46/6@;^4//666^._64!(/_6666/4(.^(4!/;7",
"A[%%;;)(.4(4./.()*>4.^;^&!.4!!>*;;^4_++:=!::()>(6.(^!._+(.6::64!>>!._+_6!!(4....>!((!(.6#(^/_.6@!4....6:>!./.444_6//664!>&!66_&x",
"ci~])^*>.((.664^*-)4.^>!)._4!(!;>>^4_+:6).+:(>!64(((4/_:^(.__/(^>>!.__/4(!!!(4/64/6.(!.6:!!+#.(_./.(^^._;>^466.(:6./_64^^=;/_+>l",
"xi{[)!*;.44/:_4>)-)/_(!/^_#/(..!;);!/64!46:_4(/+^!4/6666>^(..4(!444/6.!;_/4!^!4.6:+64!46/>!504;!//.^))!6;);(_:/!:6./__4^d4^!!/^1",
"w'_^%*>-!&.*_$'^.///444../_:_/4!(!(4)~{,(+#.4_.*_/4^>>!(+::_6/..^(//.(4./.4(!(4.=^_#:.((+::+/!(:^(..!>;;!!!/+#:/.////.4((+.6^;!g",
"Bi4^).+6)=!&60=((4//..../6__6.!^>;^4^,[]++.;*^4(.4!^^!(4.4(!^>>>!(4./.!^;)*&*)>^^!^>;>(.6//64>^/!(.4!>>^(^>!/__/44.//..4!:4.*&(2",
"w364;(/()*^*/+-!^!4/6/../666.(>;;)>..;'3d#/4!^(_4444..//(!>)*));(((..4>*^^>;>!4.+6(^!4//6..6.^^.((4(^>!44!;;^.6_..//.4(!^6!(-=(1",
"x%6(&**=(.(>6.-)>^(.66/466/.(^;*(>>46.>*5/.#:>*(//6__66//4!^>^!(>4//!;);_6/../_::6/_+:.>_//:_4(/444!>^(.6(;*)!/:_66/4!>;^(*(;*(}",
"E8*)-*)*4+((:(>^^^^46_/(6//4!>)*4^);!/.!/;)(^%,*6666/.(!_6.44.//).+6;-)(:_/444.//4(.6.^&64._:.(...4!^^(.6.^))^/:....4(!^^;%./!!u",
"ql%&=-&-;+>4#4664!>^.6.(6/.4!^>;^^)-*4/.:!&=%%*(..4(^>;;.////...>/:.)->6_6.4(4./#6(^^((44^^/64^!.//4!^!(/.(^;>46>>!4..//^;=_:!>g",
"D1&;-%,3&#*4#^+__(;;(/.(6/.4(!!!;4(;;.:_+:(--^/_.4!^>^!!(4.66/4(/.(^;^46/.44.6:#__6.((.64>>._.^^/6_/(^>>^(4(>;>!^!(44444^^;#/&>8",
"D|&>)&&-)0*4:*_.+4))!..(//.4((((>_+/4:@#^6/;;/6^6.4!(46_!4/_:64!@.**!6_/>>>^(6+#-^6:/^)*/!!_+6((/_:_4>;))^4(>**)66/.(^;*^445^3;]",
"o1)^>4+@;!4.44/6!>;;!.66///.4(^^*(/((6.;)>(444./_6.(4.6:^(..4!^!!>))>!(((>*)^((!./666/.4(^>4__!&>(//4>)*>^!./.>&;>^!^>)*4(:':(41",
"A2=^^;;!;!4.../_(!!(/_66////.(!^*!4^!.4;*;(.6_:++:6////6!.6_/....^);^4(!!;*)!44(4/_+:6(^/4!4_6!*(/:+_.(((!!!4(^;^^(((^>;^.>))/&8",
"}1-_+^*>>!.///6:>>>^(4!^/////4(!;!!>>((^>!._++::66____66^46_6//6_(;;(/4^>;)>(.//4/+@+6!):/4.6/(;;!/6/444/4^>^!!!!!(44!^>;6-.'+'i",
",{=#04;4^(////6_!>;;^!^>/////.4(!!!^^(44./6:+:/(!(/_:_6/)^4/.4./#.>>.64>;;>!4/__/_:+:.^;_/4.66/4)^4/.44.64!^!(!^^!(4(!>;^/;/>+)'",
"]}{!_>).!4//.4./:/(!4/6_..///.4(4(((44./...6:_.^!(.66.!>;^./.../#/^^4/4^;^(4/6_:+:_6.4(!444.6:::(._:_6_:/.44.4^;>^!!!>;)>;/;#.6*",
"12i*(^!64.6/4!!!64^^(/66(44..4((.((//446!>;!6+_//66/4>*=!._:_66_6.(!(444>!.666_++:6.444.>!4/_:++4.66.(4./....4^);>^!^>)**%/-@;/*",
"}{%>.6__./6.!;);));^4.(^!!((4(!!(^!6_(!/(;*>/++_///.4^)*4/::_6/6(44(^^46^4_:66_+_66//...;^.6____4..(>));:64(((!>>^!(!^;)*&>>4;)-",
"9~)!.::./66.^*&&-)!6+:4>^^!((!!^!;^__!^4_()>.::6!(44....(.66/4(4>(.(;;4:!/:+_/6:4/6__6.(;!/__/.4_::/!;;>@_(>>!((^!(4(!>;)(-+&4,-",
"774.*44+((4(^*%,;;^4/.^)6;)..**..44/_6.!44./_6(>.//66//.+6./:+64........$@::++:6____66_+^!4./666:#+(&&4@_/(^;;>^;^4..(>;*>=^4/6u",
"9g;>%>>/)>(.4>&%*;!/:_4>()^#@4!_(!!(..!>6/6:#+6...4444../..6+###/66__666*^/___:#./66///6./6_:::__++/>)^.4!>;;^4/:.^;;!4.4+(.4/4o",
"i84.).(/-*>((^)&);(_#+6(;*!#@4;!!^^!44!>((4/_:646/.44./6.//.4((44./66/4((+df#6:@+:_64>*-..//6//.!(4.4!^>.(;&&*>(@/>)>4..6d+64:6a",
"gc-;=^--;)&--&);(!(._:6.!^.+:^&*(!^!44(^^^^46_6.+_/../_+(.6.^;>((4.//.(^(..!*&;4#+++:.^*.../..4(;);(6:6.4!;**>46_.4/+#_4;@/^^#0u",
"Do%^!#4!/>'{1~%*_.^>^(.._/6:_4!(!>;;>^>;(((/:++:_6.((.6_)^44!!._4.//.4(!4;%3';/+((.:50@:44...4((!;&;.::6*&-&;.+0>>>4_+_.]>=,'.5}",
"ca,^.e@+6^'i}|[36()&&;>^>;;>^(./*-%%-&--;))>(..4!^>;;>^!^!!>*--->;;)*&&&+(%~3&^4;*&;!!;---&**&&-;-3]'-&-=%,33'=-]]~~]%*;[%{~~-4l",
"cC7|i;='^;&'~1}2>*==-&*&3,''=*;>-'33'%%'%,3'=&&-)******)(^;*&='3)&=','%%;*%~188|)=3],,[8~]3,''',-'][[~]3&-%3[18}i~3]{{3='%];&=^}",
"&2]{i*',=*>^&~7c','=&&='3'%%=&&-&%,3'%=%',3,%--=**);;)**)&&>/++:.!;&-&)>*4+:()*)%][3&>;&,'=-&***)**&&&);=-&****&3;_+(*&***&#:>4["};
