/* XPM */
static char *magick[] = {
/* columns rows colors chars-per-pixel */
"128 128 52 1",
"  c #cacacacacaca",
". c #cbcbcbcbcbcb",
"X c #cececececece",
"o c Gray81",
"O c #d0d0d0d0d0d0",
"+ c Gray82",
"@ c #d2d2d2d2d2d2",
"# c #d3d3d3d3d3d3",
"$ c Gray83",
"% c #d5d5d5d5d5d5",
"& c Gray84",
"* c #d7d7d7d7d7d7",
"= c #d8d8d8d8d8d8",
"- c Gray85",
"; c #dadadadadada",
": c Gray86",
"> c gainsboro",
", c #dddddddddddd",
"< c Gray87",
"1 c #dfdfdfdfdfdf",
"2 c Gray88",
"3 c #e1e1e1e1e1e1",
"4 c #e2e2e2e2e2e2",
"5 c Gray89",
"6 c #e4e4e4e4e4e4",
"7 c Gray90",
"8 c #e6e6e6e6e6e6",
"9 c #e7e7e7e7e7e7",
"0 c Gray91",
"q c #e9e9e9e9e9e9",
"w c #eaeaeaeaeaea",
"e c Gray92",
"r c #ecececececec",
"t c Gray93",
"y c #eeeeeeeeeeee",
"u c #efefefefefef",
"i c Gray94",
"p c #f1f1f1f1f1f1",
"a c Gray95",
"s c #f3f3f3f3f3f3",
"d c #f4f4f4f4f4f4",
"f c Gray96",
"g c #f6f6f6f6f6f6",
"h c Gray97",
"j c #f8f8f8f8f8f8",
"k c #f9f9f9f9f9f9",
"l c Gray98",
"z c #fbfbfbfbfbfb",
"x c Gray99",
"c c #fdfdfdfdfdfd",
"v c #fefefefefefe",
"b c Gray100",
/* pixels */
"e66rjhhjre6err6=6e21=111==116riihhre262211126erjie6eee66reeiheriiijhe66e6e6r2e2e=261=266eerre222e66rhhe1622ee61=&1ejjr6e666e622e",
"e1=16eerhhree6226re226666666errriiie66e6222226rjirerree6e66riiihihhir626661e2r2616e2=166eerreeer222eijhi21=6eeeeh==ij66h==2ee26r",
"r6111122riii62266e666ee66266eihjihhiee66621111erirrire666ee6eriiihihie6266=62e6216e6112errrreeri6226rihjji6622116112ihe16266226r",
"666ee6212eijie6626666e626212ehjvhhhrrir6611=1=2errrir66e6ee21ee6iiiihir666=61e121ere1126reee66eeirre6errhiree666=662evi1e6666266",
"11266e6212eiiie6666e6666e626rhreiieeihr621=22126666er6eeee621662eerihhie2616=62616rr21126eee6666iiire66eriiiire6r62ee6iv22eihi61",
"err66221e222ee66e666622e226rjje=2111rhie21126226626ee6666e66266666eihiir1216=62e22ee6===16errr6errirree6rihhhre2266666ijhhrrrir2",
"ijjirrr6ir66errre6ee616ieerhhie111126rire2222226e226e66e6266626666rrihir6e1616226266611112errreee6rrirre=2eerhhh=e622rr1vvji6eii",
"6rjjvvvjjjjvjvvvrrrreehvvvvi622616222erie2112222r2266e6221166216eriihihhhi26161=e62621122eeere6ererrrre6ere626eev6&6re6r6hvvjhhi",
"vvvjhhiiiihvvhhjijjhrre12eri6=1ere21=16rjhe26661266ee6e66e226e622er66rhhjie6e621e26e6e6=16eer6errrreeeriee66266eihjre6e6eihjvvvj",
"666eerrrreriirriiiihie22626e66eii2126116jhre6211e6e226er66622662rrreriirjirree66116ree6126eeeeihrrreerrrree6266eehjhrre6erhjjhre",
"62266222eeeriiihje6ri61261=12e6rj6=er216eerie22eee6626er66211666e66erireiihire6e1=er22e6266eeerr6errrrrrrrrr66662rhjhhhi6eihhi62",
"reee6662eeeihhhhhr6ee611e1=12e62vr26r62e26iie26r26ereee6661112e62226erre6ihre62222ee11ee222eee6222eerriiiiiree6626rhjjvvreeeiir6",
"ee6e6ee6222eiirihir66e616222ee66hhreeee6erii611626eeree6666112e6666666ih6rhi662111ee116eee66eeee66ee6eririhire66266erhjvjr22eire",
"rreee66e222ereeerhieeir212222eee2rheeee1e6rre22e66e666ee6e622erre662116iriirrre1=1er6662e62222rirrre6erriiiir6e6e6666erhvi2=2eee",
"iiree666re66626rrriiihre11==2rr62ee66e62212rieeie6e666ee6ee66erre2221=1erirerhr262ere662ee61=12ererrrrerriirre6eeeerre6ejir6222e",
"6eeeeerrire21=2re6rjjirh611=6iirh2=1e6er611rie662errr6216rre6rrre2126626ir66rvh6hee666e2riir21116eriirrrriireeeeeeijjieerhjr616e",
"6ee2erreirh21e2116rire6err662=62e2=1666ee6666e6626rreeeeireee62==e6161=21er62rhrriiiee6ehrie=&1=66riiirrieeir66e6e62=2eh2viev=2e",
"rre66e62jhh1=e62==126666ih66e6hi1=1266er266626ri6rrreeeerrrrrre212216e6eerirerrevvvjiiir22ihe621=126rrhhrrriie6e6rrr6226i6revire",
"6erree62hhje2ree2=116eeeii6ee6hh=126626e6err622eeee6666eeeiiiie222262rhreerrre66ihirree6=2hvjii622226erirrirrre26eiiie2=eOvieeei",
"6rihr6e626jhihrrre212eerer6rr6e6eeeee66e6eiir666e6e66eeeeerrree2i6e62rhereiiir66rihhjjiirrhjhihirr666266err66ee26eerire6==vre12r",
"ihjjr62226jjjviihrr2112eeieiiee2jirere6e226eriiiiirrrrrrereeee6eh66e2rh6iihjjirriijjvvjjjihierhiree6e6eeere216e2e66eiiir2r2ev622",
"rihir66eirhhivjvjjie2=12er2ee6irvieerrree6116rhhhiirriiirree6erheereerirriihiiireriirrriieee26e6e66e6e6e6ee22626666riire1h26v=1e",
"62eririjvii6ehhvvvhir622162ee6reie66eeeere6226erirrriiirirreeerh6iieiiri2iie6eeerhjhrrihirrr6ee6rre66222e66ee226666errir6ereh=1r",
"eeerirhvvre6ehijvjhiir61166ri6e2666e212626e6222ehiiiihiiriireeer6hhrhrei2hje12reeihhe6eivihierie662222e6e2err6166666erhjv=reir6e",
"22116riihr666rjvire26iie1112266eee62212262eire226rriihirhhrrerihhrrhi66rire2eeeejhvvrerhjjh6ehieir666666re26errr62266rihvh2r6jr6",
"62266iihirerivjhr6226eee66eee22122262226e626e6eerreeriir2eihhiirhirhi612ir626626jhjvhrrehire6erhvvhreeeee6666ee6e6666eihji6r6ji6",
"1=166rijhieehvjrr212662eerrre21&11662626e6266eererreriiirhhhrrhvvierr211hie62666hrivvvheirrhr6rvvhrrrhih6e662266e6e26erihhriejh6",
"112666rriiie6iirr212e21e66e6621=226662626666eee62rhhhhhijjjhrrijvr22266rhir666eereivvvhereiireiveeerriiheee212er266622errihi6hh2",
"eeeee26e6hjr226er1=66116226662221226666e666e6e66eihiihhiihjjhr21he222eeree66266ereijhir62ereeiirrrirre6eerre226e126666er6rhrerh6",
"12226err2rvjr26r61122=&266eee662112666rrhie6erriihie6eriihiire66ee66666611221226e6rhrhjr6rr6ehi2iiiiiee66riie22112er6eerr6hiiiji",
"=1112erieehvjeer2221==11eerire211166e6erhhirrhhhriie6erijhie26er6e666621=122222226rihvvhireerir6errrrrri6rrre66626e666rijrjihejh",
"ie622e66i66hviij6e62111126rhie2==266e6266riiihir16irrrrrrihi62266662226e2eeee66erriirhh2he6ee26eeree66rirreeerhv26e612ehveiri1ee",
"ivh21er2rrrihh6=&2e2=12e1eijjje=11=12266ee6ejviieehei6r2eeiireer66eeee62621=226ehirrijvvhei6hei6hrrir2166ee62112rire6e6eijji2122",
"1rhe2ee6rrrrihre2eie2126rrrijji612erre62662ejjihereeer62e6erirrie6666ere222eree2rrrriihjhrheiee1re6e6116ee6e626erreee666irree66e",
"6rir2===erreerirehjie666iirijvhe6eriir626reeihrrri6i6heei62eriii66626erire2226eeeeriijjvjijrhe6=r62621=2662ee66eiirrrirrh616ee6e",
"266e62eierre6err6rhre66errihjviee6eeerii2rerhiriererehiiie6erirre66e66eehie21266226eihvviriijie1re666226e6666666rririihhve16622e",
"rerihihvriireeee2ereeee6riijjjhhe6626rij1erijhri12r6e2rrrreee66e26rrr662eriire211122erhjeeeihi62re66e6e6re6eeee6e6erihhhvi6ee22e",
"hiijjie66ere26626eee6e66iihhirhveeeerrrhrhiihr2226j2e1r6reere62e2eihi6216erree626ee666rhrr6iri612226erre6626266e6eriihjjjreee226",
"12errhii26622666eeeeee62rriirerjrrrrrihhjjieir226er622rrr66errririjjie6e666222errrrreerhiieiei666226ere62222112eeerihhhjrreee666",
"err66rhhriee6err66222ee2666iie6riirerihjir22riri1e16=rerhe2rhvvvhjvvhiii26ee66666riieerrjhehrjrre6e6ee61ee661=2eeeeriiiiiiiiihr6",
"6ee6erijr2iore=r26ee626e166e6666h2262ivrre6rree662jhiO=e66rijjir6ijjirrieee21116666erirrevj12erie=2r6eiehr616rr2eerhie6eririrrre",
"222626rih1Ov1oe116eee62266eee666ee66eihrr612666rr122hriheeeerrrreiihiiiijjhie22226e6e6eeevh6erri666616e2erre26ee6erire6eiiiiire6",
"2666266rejOv1=Oe16e62e61ree6e6666eeeijrrie2266rivr6=6261e6666eerirriiirrihjjhiee2eee666eejjiiiei6hi12ee62ere666eeeihie6errihire6",
"eeee66er1jri=v hee6==662iee66e621e66jjrriiihjihh16r222e612ereerrjhrrire6eerihiiierre6266rijjhree6vi2666er6116ee6rrihi66e6riiiiee",
"6ee666eer2jjOi62re2=1621re226e22=e22ijrhhiihjhhhhvvv621=12eee66ehiiree6eiiiiihiriiee6622eeijjhir6hree21ei61=6ereerhir62eeeriiirr",
"errrerriih2jr=e266eeee2=r61266622e62riiiir6errrh2rerrvjhrie66266erire6eiriiiriiihreee62166ijhjviiiiii216rr6626ehrihhr66reiihire6",
"rihiiiihhv2rve2reerhh621e62266eee6e62ririe6666erer2r6i6ejirre6222erreeri26eeerihiiiirree6eriejvrhihieee226eee6erihjjieeiriiirre6",
"errrrrihvehi2vi2hrrjh626ee266erir2ee26i2rerrirer6irvri6irrrir61&666eeeee2erreerhrijjhrihrehrejv6rrie1rh1211eir1=ihjjr66rrrriiree",
"6eiirrihrjiie6ir6e26ir16i6rjher666rree62626eerrerrrerirerrree61=126e6eeerrrerrrrrrihhhreehvieivvjrrr666e6666ee66ijjreerrirrrie62",
"eriiiiihii6erri2ire6i61=r26reer666ee6ee221266666irirrre2eerrre21122eeeeeir662erreerire61ehhrhvvirehh61ereeeeereeihjr6riiriiireee",
"6errrrihhh6errr2i26erre1e2262er2rrirerie6e666e6rriirrie266erie61226eeerrre2226e6rerrireeeirehvvi66hje6rieerrrrreihhreerrrhhhreee",
"eeeeerrirvhir6ire&1eerh622e212e=hihiriierrree6erriiriiir2eerre22226errri6266e6216errihiieriiihjvh66rrhiererrriirjvjr66e6rihiirrr",
"eeeeeerrrvhhrehii11e2ee226re12e1rrihrii6ee6e626erireeriirrre6211126rrrii26666e62266erriii6eiieivvr2erhierrriiiirjjhe6666rriiirrr",
"rrrrrrrrhjeehrher226226222rr6ererrhhrir666666666riie6erriire621226erriiire6226eee6e6eeiiv6=eieejviiieeiriiiriiihhirree6errriihrr",
"iiiirrrehherirh2ee22626rr6errririrhirri6e6e6eee6eirreereriire62626erriiihr66266eereeeeijvr66e66rhhvve2eriiriiihihirreerrerriiiii",
"iiriree6ijhhr6irri62611ij62rrirerrrr6er6e66erree6rhhihir6riiree626eriihhhiee662166e6eeiveihe116eiivvi6e2hirriiiihiireeer6rihirih",
"e62riirrvjirrriirih66ee2rvi6irehhre6e662e6622e66erhrrihiree666ee2=12erijiirree66r22rirerje6iie6rirrvvhee6rhhrrjvji6erriveeeihiie",
"6666rvvvhiiiiirrrhhrer612hiererjiirriir666666e662riirihjir6e6e6e6116erriiiree66e226rrrrhrerhhr66reejvheeiiiiihjjjirririhirrrriii",
"rir22ijiihiiiire6rhiii612ihreerjreerrrr6626eeee66riiihjjre66erir622eerrirrre626e66err2eieeriiirer66ihhiihiihjjjihirhhrrrhirrrihi",
"hjie26e6vjhiiiri6eiiihr66rhreeeie62eeee6ee666666eiirrihhie22eire262errihere6222e626eeeeiiiieeiiir62rihhhhhrijvhriiihhiirerihhhir",
"irihhrrhvjjhiihiree6rihieriirir6ee666eeeeee2266e6rreeihivi226e212666eriirrr662662116rhihhji66rirr62eihhjjjhihhirririihiierihhhii",
"ierjviijrrjjjhiiee22eiihreiirhheeee222266e6622666eeeeihihe1126216ee66eiijhiee66ee626erreerre6ee2ee66eijjvvvhiiirirrrriiiihihihhv",
"hrrhhiri6rhjjhirre266riihrhjrhjerre221=122e6666666626rrrr61=2e662ee226rihirrrre6eee626666eee6662eeee6eijvvjiihirrireerirhhhiirhh",
"jhrerhhrriihhiihre26eeeehivjerheiire6211=16ee626ee666eeehe2122212e621eiihreerre6122226ere6e6666e6ere26rhjhreihhhiir6errerihhieee",
"6ivjreivvvjjhhi6hi616iiehhjhirihiiirr61126errreeee621126iie111=&66226rihihii66ee66ee666666e666626riiiihjjriirivvvhre66eiirriiii1",
"26irreihhjjirre6hre26riihhhhierhrrirr62262eere6612222erreire211=22222eriiihieeerrrire222222e6eeeerrhhhvvheeeeihhvhrihieeeeiirih6",
"66eerhhhhjvhhiir66erhrrihihjheeirrrrr662666err666e666eereihr6222126666eriiiieeeeerir6222126ee6ee6rhhhhhji6266rirjirhjjreeerrerir",
"e666rhvjjvvjhjjv66eiirijhrrjheeirrreee62662erre2reee666errire6ee166e62eeriiireeerriireee6e6e6626eriirrerr22eeeiehrrrihire6e66er2",
"22226rhhvvjiihjjhe6626ivierhhrrhiirre6216666e666666e6eereeeerre62rire26errirrrrrihhireeerree62666eire666e16re6rrrrriiirrie666ee=",
"622226rivjhrrriiiirir6errerihihhhiire221626262662666eerreeijvhr6eriiee66eeererrr6eeeerrhere6e66e6erre66ee2er66eeeihjhirei666ehh2",
"e6622eeeehjhe6ri6ijjhir6riiiihhhiirre6622666222e6ee6e66eerivvirirrrrreeee6e6errr22666erheeee66rr6erreeeer26e6ereeriiiir2e226rhh6",
"r6212662&ejie2rhrireehvjrhirrjjirrree6666ere22er666eerrre6ee62eirerrrre6e6666rrihhie62er6ee6e6errrir6666i66eeriehie6eir26266eii6",
"rr62222r666riie2i6ereeijhvheiieriirriie66e66ree2eee6eeriihh=22reihhrrire2ieee266e626eee2r66e6re16eeeeee6rreerrirrrrrrire621=6rr6",
"er21222re622eiihreii2166ivhrhiehireerreee6eeee6666666erieii122ieihiiiiie6i26e2eee6226662ieiirrr6irrree6erreriiiiiihiiiir26626eee",
"ere266erir6226rii26e622=ehhihiriirreeeer6e6eeeeee6222ee6rij261e66hvvhrriei16r666e6e66662e2rjirihhirre6ee6eerihirriirrrr616e2122e",
"rie6e66riire6222ie6612622errrrrrjhrr66ee6eee666rie626622eij261e26rjjjihier22e121eee6e6eer2ejhrrirrrreeereeerriiirireere6=222==26",
"rir661&16erre622rrhi22rr66ereerrvjhrr6666eee66eiire666662ei221r6r62rhvhr6heee121eeeeerrivrrvjre6eerrre66eeeeerririireeee66662266",
"rir6e1==6eeeeeeee22rivvihrri6eihvvjhre66eee6eerirrerrrriirh6e1e62eereerjrvijheii666eriiijeehiiie6errr621626226ererre6666e2126222",
"6rrer612e66ee662e1=1rvvivihjeeiihhjhreeere666rrirrirrrhjhih6e2e2=6re1&evhviijihhe26eriiiie6rerhirrirrree122211222666226661=22112",
"=6erre22222riie26rh2oOivvihvrehiiiiirrrrre66errrriiirehv612=66r6i2&16e66ij22e2e6re6eihhivjji6ehiiiriiiii26e662262ee62266e226612e",
"262hrh22=1666211e26ee26i6eiiirhveriirrririre2eerjrrihrr2o&26e621riie1=2eeere116r2ijherjvhhhhrrrrriirrrrrre211211r626666rre==6222",
"2e6ieh6222eree661=6rr66r66ereeeivieerriierireerrirhhirr6661==2er2eee2166rire6266rrrrrreeeerrrriieerjvhrere666666re6eeeerer61ee6e",
"6e6iei622266ee66e6rii6222216666evjrrrrri6rirriir6ehr66e2ee6626er22666666rreerrr6r66ihirierrirriiheerhirie62226e6reeerrer2re12e66",
"262r6i2221126ee62266rrihe626e6e6eijjirrreriiihir2eie12e216rihr626666622166erihree66ireiviihiihhijhreeriire211226e66erree1r616621",
"261r6i262=126rrree6ee666r62erree2eihhirrriiriihrrii61eh6666eerrre66666216erihre6i62e616heeerriir6hjirhi2hi621166266eeee66r616e1=",
"162hrhe611=12errriihie6=re6erreee22ehjhrriirrhhihre21er6e666eiireeeee666&2errrrrh61266erre6622===ihe6rhrire6116e66e6ere66e22661=",
"2e6jhje6111=116e=16ijjhre66er6errreerihhiirrriiriee612e2226rihreeeee6ee6&=266eihe6226rrrhre621&O22262erhrire622266666rr66612e1=6",
"6rrvjve66221116e66666e6166eeee6r6ivhe2iviiirihirheei66e6e66eriiirrrr666ee62=116r2rie==26rr66ee66=&=rh22ejjhhr21=2e666rreee6er22h",
"iir22eih661==16e2ereeree66eeeeeeie6eihr6hjjieeij6eeeeee6e222eee222126eei2222116rje6e2662er6121=121=1122112rihhieie2ere6e6ir6re66",
"6e61=2ri66e21=1216eeereeree666rhreeeeririihjhiireeeeeeeerree6e66ee622666666622eihrrr2=666re6r6111126662122626ijje66errrhjvi6iiee",
"2ee1=16r2err2==112666eeerreeeeiirire6eriiiiijjiee66e6ee6rire666e666666ee2122112eirhh21666re6e2=111==12ee&16rhr6=ihhiiiihvj616e22",
"riie22er6err61=112662eee2errrerriiire6erjieeihiieee666ee6e6e666e666e6eer11221=12rijje222er6261161==11122126eeee1=12eivvvjviehhih",
"hhireeeirreee62226662e6e26rrrreerrrrrre6hirrrihhire666err666erreriee666662266212e6iji621ere2662622ee62=&=2erhviere61261o1e212212",
"e6erirrihreee62126e666ee66e666erreerihrerhjjhhihirreeerrre26ee62eeee6e6eee6ee22662ehr62=2666e612221122rr=2rjvvr1&&&16ree1ri66616",
"6216rreeire6666212e66e6662666eere6eeiiirrihjhhiiiiirrrii6e66621=22226eere666e66r62eir6e62e226626661=16hvvi612eirreerr62e1ee221&&",
"r21eire6eeeee66e=1666ee612erre6eeeeerrrrriihiiirhhiirrrreeire621e6622226e66eeeiirerieeihrie2erijrhhhieeejh626ihiiijvi22hrireir62",
"61e==62hre6e21126e6ehr66e22ere6eeerreehjeire6ererihreiihirrerre66e6ee66612rijir66112iihhr6e6=er=e6erhiirhr211ehvjrrhvihviihhhhrr",
"6=211r6ir626e211ere6hieri666e626eree6eririhreee6eiir6eeeeeeeeee6r6226e6221112662ie211===622616e6e6erhiiivjhiihhh116iirijrrriihhi",
"e121eirir616ee21er66rreeire62=2e666e666errrire26erieee626e6e66rei61=2e62211166212111226i6622eeere6eeirrrr6==2errrhjhe1==ee6riiih",
"e66eeieei616ere22e66ir6eire2112e26e6666eeerhie26rreeere66e6ee6eeee112662622erre2e66666erri1=hje6e216eeere6116rihrhie2eeere6266er",
"ririree2re26eerrrre6rrererre2126eeereerr6erjhrriie12eirre6666e622e622662ie1=2eriee6e21=1ejr=ei61e21226662ehjhiee6re26ihr66111226",
"ijiiier2ee6e22ehhi6=26eheiir62226e666eer26rihirhi6=16erire66ee21=6ee6666r6622err1=26e6261hvr6662e2=12666=2ere226rhiree2&666222er",
"rhehhri66e66666rihe226ei6rhre661662222666eeeeririr6e66eiireee6661ee66rr626er6622ir6ee6112evje2ere622666eeee622er26eeee62e6eeeeri",
"ri2ijhj6226ee622hjhihiri2errere2ree66666eiireriiihhh616hiiiirerr16e6eii6eee21122r62erree6O2vh6eere6er6eeireee21=12221=2e66ee66ee",
"ie66eeih662111266erii6ehhhieeie=e2266226err626rrie2rhjieerre666266erirereier=2116errerhhi2=6ir6errrirrririi6122222e2=&=16216re6e",
"eee622erhr61226e2rireirr6ereerii622errrr6rrreerrirerrreeiir666eeee6er66e2re62662=16e66rir622eihrerrrrrrijjhreereeee62126666ereee",
"6662=12eirree6ee11266e666rrie2eirreeriie2ee66errrrrrreijjhree6e26216666e26e2e6e2112226rier616hhieeeerreevvhrihhirrree66eerrre216",
"266211222erhhieer11ereehiihie=1erihriiieeree6eiiiriiirivjhhrrr61e666eeeer6i6r2e126666eiirie26riiee6eee6evvirihirre66eee626ee6222",
"2111121116eiiirer622errirerir66e6hvhihhhijjhrihihiiirrerjjhihhr6iiirre62iei6i661eeee6eeer6err6eirrreerihvheeere6re26e6621126errr",
"11==221=26e666er6re=1ijeiiihhreeivvvjhhjeivjhhrereeerrervvirrhjjeeeeeee2rerei66e66666662e22rieehrrrrihvvvieeereere6e6e626666err6",
"21==1111222212rihhiiijjvjvjhihirvvjjiiri6riirre6666erijvjhreeihh6eeerrre6e6ie66r6e666222662eririerhiiijvie26ee66eeeee662iiieee61",
"e6621111=12626rij=1vv22vjvvhhvvvvi66rerrrrr626rireeerrhvhhir6666jjjirireer6i261r6eerree6ere6eiie6rhhieihe226666eeeeee6226rre6666",
"==1eire6266erirrvhihierjriirerjviiriie212ee66re6rihe26hvjjvve==61=rvvvhiee2ier2e6r6i6ier6ii216e6eee666626re2r61226e1==6i2ee66re2",
"66eihhhjirrrrirre66eeeiv6ivvjvvviiriire212626e62626ehvjhvhhjr2=12=6irrhiihj66re1er2r2r266ire6ereee6666e62e62222eir6eihr6erre6622",
"e26eerivihiihiirreerrerhivvjhjjhhririre6126226e2666rhvhrjieihe21226616rehjv6iri1261e166e6errriiie666666e116e216661&1er61erii6116",
"112622eierhjjhr6hiiireeivvvrehi6irriiie2122266eeerirrrhhjr6rhi6116rr266=e6iivrrr26=61e6re6eiirrirrr66266=&2e2261662226ei26er612r",
"26ere6ereeriiie66e6rrrrihjirhvr=26erire222226eer1ehrrrhjireihire=6rr6ee111=rihijii6e1e2e622ee662iire6666r=162261iiir626r226ee22r",
"66erre6ehir6626622eeeerrrreeijji1116ee622112226r6riiiir6iriihhhi626626i6=e=1Ohiijvih26==11=1662=6666226ev6==12e66666ee62666ee66e",
"6212666ejhreeeee6erre6eehreeeehvrr626e66611266eriiiirie2riiiijjji21226ee2e2&O6e2rhijee1&12116ie22eree66evi1=226re66erie6re66rie1",
"r2126eihriiiire626e6eeeeeeihe=1evvie6666e21266eiiire6eihrrrrhjjjje2e6621r26=e&=&16rvih62=221rvjrrijjiiihjh22r61rrre211==ee66rji1",
"hirihhiihree6rre11126ee626rhi6ervvvhe6rrre6ee666eeerrerre6rihhhijje1&1er6e6==6e266eervvvvr2ejvh6i62eiiiirhh6==eirie1166112211eih",
"ie6erireeee66e6e222266ee66eiie11ihjjhhieerrr212ee66eeee6eeeerhhhhiee6ee6e2=122666e62eijjvvvjhhjvihiiireeehvi2126rire6rre122216ri",
"vhrijvjh6e6ee66e661126e6e22rir1&6eihvvjiirrrr66e66eee66err6erihherrerie2i2&=212666212eiiehvvjhhjijvirrre2ivvi666262222626ee21266",
"hirriireireee6e262111226212rhhr2ee6rhjvvjierihr66666errrreeerrihhhreerrei611111622126eri66rhvjr6eiherhji6hvvvhr6e626e66e6ee22222",
"vvvvvjhhhree6ee662111122=12eihhhe666rijvvhriiir266666erreeerrriijvvr6eerere1&=1122266errhe12rhhieir6ehjrhjhjjji6r626222622112e62",
"2rhhie66ie626ee6e6112622&122erhhe6eeeerhhvvjrerre6e666e6erriirrrijvie2262rr1&12=62eeee6ere626rihrii6err6rr66ijjiee62111166116e21",
"2rjvjhrreeee666ee2222662&1116riihe6ee666rhjhihhrre666266erihirrrrihr22216ee62222226ee26r66ere666riiieee622116iiiijhirre2re22221=",
"&2ijvhr6eiir212e22226221===16rirvr22ee626112ivh6ree6eeerriiirrrrihireeee611ee21e111e666rhe22er61erhjie6r66621666ehjrrre=22211266"
};
